<svg xmlns="http://www.w3.org/2000/svg" xmlns:xlink="http://www.w3.org/1999/xlink" width="77.996" height="32" viewBox="0 0 77.996 32">
  <defs>
    <linearGradient id="linear-gradient" x1="0.306" y1="-0.706" x2="0.5" y2="1" gradientUnits="objectBoundingBox">
      <stop offset="0" stop-color="#32c1d1"/>
      <stop offset="1" stop-color="#187cbf"/>
    </linearGradient>
  </defs>
  <g id="storio-logo" transform="translate(-58.004 -153)">
    <g id="Storio-logo-2" data-name="Storio-logo" transform="translate(-2 102)">
      <text id="torio" transform="translate(80 51)" fill="#f2f7f8" font-size="24" font-family="SegoeUI-Bold, Segoe UI" font-weight="700"><tspan x="0" y="26">torio</tspan></text>
    </g>
    <g id="logo-icon" transform="translate(1.004)">
      <path id="Path_1" data-name="Path 1" d="M3.553,0H16.876c1.962,0-8.37,2.718-8.37,6.07s10.332,6.07,8.37,6.07H3.553C1.591,12.14,0,9.422,0,6.07S1.591,0,3.553,0Z" transform="translate(57 160)" fill="url(#linear-gradient)"/>
      <path id="Path_2" data-name="Path 2" d="M13.571,0H.248c-1.962,0,8.37,2.741,8.37,6.122S-1.714,12.243.248,12.243H13.571c1.962,0,3.553-2.741,3.553-6.122S15.533,0,13.571,0Z" transform="translate(58.872 171.443)" fill="url(#linear-gradient)"/>
    </g>
  </g>
</svg>
