<svg xmlns="http://www.w3.org/2000/svg" xmlns:xlink="http://www.w3.org/1999/xlink" width="142.694" height="60" viewBox="0 0 142.694 60">
  <defs>
    <filter id="String" x="55.694" y="3.5" width="87" height="50" filterUnits="userSpaceOnUse">
      <feOffset dy="3" input="SourceAlpha"/>
      <feGaussianBlur stdDeviation="3" result="blur"/>
      <feFlood flood-color="#1a828e"/>
      <feComposite operator="in" in2="blur"/>
      <feComposite in="SourceGraphic"/>
    </filter>
    <filter id="Polygon_2" x="0" y="0" width="64" height="60" filterUnits="userSpaceOnUse">
      <feOffset dy="3" input="SourceAlpha"/>
      <feGaussianBlur stdDeviation="3" result="blur-2"/>
      <feFlood flood-color="#ccf2f6"/>
      <feComposite operator="in" in2="blur-2"/>
      <feComposite in="SourceGraphic"/>
    </filter>
  </defs>
  <g id="string-logo" transform="translate(-635 -143)">
    <g transform="matrix(1, 0, 0, 1, 635, 143)" filter="url(#String)">
      <text id="String-2" data-name="String" transform="translate(64.69 9.5)" fill="#1a828e" font-size="24" font-family="SegoeUI-Semibold, Segoe UI" font-weight="600"><tspan x="0" y="26">String</tspan></text>
    </g>
    <g transform="matrix(1, 0, 0, 1, 635, 143)" filter="url(#Polygon_2)">
      <g id="Polygon_2-2" data-name="Polygon 2" transform="translate(9 6)" fill="none">
        <path d="M29.287,2.857a2,2,0,0,1,3.322,1.462l.112,5.841a2,2,0,0,0,1.968,1.962l6.4.1a2,2,0,0,1,1.342,3.453l-4.094,3.87a2,2,0,0,0,0,2.907l4.094,3.87a2,2,0,0,1-1.342,3.453l-6.4.1a2,2,0,0,0-1.968,1.962l-.112,5.841a2,2,0,0,1-3.322,1.462l-4.964-4.377a2,2,0,0,0-2.645,0l-4.964,4.377a2,2,0,0,1-3.322-1.462l-.112-5.841a2,2,0,0,0-1.968-1.962l-6.4-.1a2,2,0,0,1-1.342-3.453l4.094-3.87a2,2,0,0,0,0-2.907l-4.094-3.87a2,2,0,0,1,1.342-3.453l6.4-.1a2,2,0,0,0,1.968-1.962l.112-5.841a2,2,0,0,1,3.322-1.462l4.964,4.377a2,2,0,0,0,2.645,0Z" stroke="none"/>
        <path d="M 29.65131187438965 6.535045623779297 L 26.30673980712891 9.484001159667969 C 25.3928108215332 10.28981971740723 24.21845054626465 10.73360061645508 23 10.73360061645508 C 21.78153038024902 10.73360061645508 20.6071605682373 10.28981018066406 19.69325065612793 9.483989715576172 L 16.34868812561035 6.535049438476563 L 16.27828979492188 10.21706008911133 C 16.22654914855957 12.9237003326416 14.06568908691406 15.07769966125488 11.35889053344727 15.120849609375 L 7.415027618408203 15.1837100982666 L 9.724018096923828 17.36683082580566 C 10.71852111816406 18.30713081359863 11.28889083862305 19.6313591003418 11.28889083862305 21 C 11.28889083862305 22.3686408996582 10.71852111816406 23.69286918640137 9.724010467529297 24.63318061828613 L 7.415027618408203 26.8162841796875 L 11.35887145996094 26.879150390625 C 14.0656795501709 26.92226982116699 16.22654914855957 29.07627105712891 16.27828979492188 31.78293037414551 L 16.34868621826172 35.46494293212891 L 19.69325065612793 32.51599884033203 C 20.6071891784668 31.71018028259277 21.78154945373535 31.26638984680176 23 31.26638984680176 C 24.21843910217285 31.26638984680176 25.39279937744141 31.71018028259277 26.30676078796387 32.51601028442383 L 29.65130615234375 35.46495056152344 L 29.72171020507813 31.78293991088867 C 29.77345085144043 29.0762996673584 31.93429946899414 26.92230033874512 34.64109802246094 26.879150390625 L 38.5849609375 26.81629180908203 L 36.27597045898438 24.63316917419434 C 35.28147125244141 23.69286918640137 34.71109771728516 22.36862945556641 34.71109771728516 20.99999046325684 C 34.71110916137695 19.63134956359863 35.28149032592773 18.30710983276367 36.2759895324707 17.36683082580566 L 38.58497619628906 15.1837100982666 L 34.64110946655273 15.120849609375 C 31.93431091308594 15.07769966125488 29.77345085144043 12.9237003326416 29.72171020507813 10.21706962585449 L 29.65131187438965 6.535045623779297 M 15.40151023864746 2.353061676025391 C 15.85540390014648 2.353038787841797 16.31892967224121 2.50921630859375 16.71286010742188 2.856548309326172 L 21.67729949951172 7.233760833740234 C 22.05523490905762 7.566989898681641 22.52761840820313 7.733604431152344 23 7.733604431152344 C 23.47238159179688 7.733604431152344 23.94476509094238 7.566989898681641 24.32270050048828 7.233760833740234 L 29.28713989257813 2.856548309326172 C 29.68099212646484 2.509284973144531 30.14468002319336 2.353061676025391 30.59848785400391 2.353061676025391 C 31.61728668212891 2.353061676025391 32.58694076538086 3.139877319335938 32.60948181152344 4.318470001220703 L 32.72116088867188 10.15971946716309 C 32.74174880981445 11.2368106842041 33.61177062988281 12.10405921936035 34.68891906738281 12.12122917175293 L 41.08852005004883 12.22323036193848 C 42.88177108764648 12.2518196105957 43.73390197753906 14.44408988952637 42.43069076538086 15.67625045776367 L 38.33705902099609 19.54673004150391 C 37.50244903564453 20.33584022521973 37.50244903564453 21.66415977478027 38.33705139160156 22.45326995849609 L 42.43069076538086 26.32374954223633 C 43.73389053344727 27.55591011047363 42.88177108764648 29.74818992614746 41.08852005004883 29.77676963806152 L 34.68891143798828 29.87876892089844 C 33.61177062988281 29.89593887329102 32.74174880981445 30.76319122314453 32.72116088867188 31.84027862548828 L 32.60947036743164 37.6815299987793 C 32.58693695068359 38.86001968383789 31.61717987060547 39.64693450927734 30.59848022460938 39.64693450927734 C 30.14458465576172 39.64693450927734 29.68106079101563 39.49078369140625 29.28713035583496 39.14345169067383 L 24.32270050048828 34.76623916625977 C 23.94476509094238 34.43301010131836 23.47238159179688 34.26639556884766 22.99999809265137 34.26639556884766 C 22.52761459350586 34.26639556884766 22.05522918701172 34.43301010131836 21.67728996276855 34.76623916625977 L 16.71286010742188 39.14345169067383 C 16.31900787353516 39.49071502685547 15.85531806945801 39.64693450927734 15.40151023864746 39.64693450927734 C 14.38271141052246 39.64693450927734 13.41305160522461 38.86012268066406 13.39051818847656 37.6815299987793 L 13.27883911132813 31.84027862548828 C 13.25825119018555 30.76319122314453 12.38822937011719 29.89593124389648 11.31108093261719 29.87876892089844 L 4.911479949951172 29.77676010131836 C 3.118228912353516 29.7481803894043 2.266101837158203 27.55591011047363 3.569301605224609 26.32374954223633 L 7.662940979003906 22.45326995849609 C 8.497539520263672 21.66415977478027 8.497539520263672 20.33584022521973 7.662940979003906 19.54673004150391 L 3.569309234619141 15.67625045776367 C 2.266109466552734 14.44408988952637 3.118228912353516 12.2518196105957 4.911479949951172 12.22323036193848 L 11.31108093261719 12.12122917175293 C 12.38822937011719 12.10405921936035 13.25825119018555 11.2368106842041 13.27883911132813 10.15971946716309 L 13.39051818847656 4.318470001220703 C 13.41305160522461 3.139980316162109 14.38280868530273 2.353115081787109 15.40151023864746 2.353061676025391 Z" stroke="none" fill="#45595b"/>
      </g>
    </g>
  </g>
</svg>
